<svg width="1200" height="720" viewBox="0 0 1200 720" fill="none" xmlns="http://www.w3.org/2000/svg">
  <rect width="1200" height="720" rx="36" fill="#FBFCFE"/>
  <rect x="86" y="92" width="1028" height="536" rx="34" fill="#F8FAFC" stroke="#DDE7F2"/>
  <g transform="translate(156 160)">
    <circle cx="160" cy="160" r="132" fill="#FFFFFF" stroke="#D7E3F0" stroke-width="2"/>
    <ellipse cx="160" cy="160" rx="152" ry="62" transform="rotate(-26 160 160)" stroke="#0F766E" stroke-width="8"/>
    <ellipse cx="160" cy="160" rx="110" ry="42" transform="rotate(32 160 160)" stroke="#FDBA74" stroke-width="8"/>
    <rect x="83" y="82" width="154" height="154" rx="36" fill="#071426"/>
    <path d="M116 190V125L150 190V125" stroke="#F8FAFC" stroke-width="15" stroke-linecap="round" stroke-linejoin="round"/>
    <path d="M183 188C160 188 146 174 146 154C146 132 162 117 185 117C209 117 226 133 226 157C226 176 215 190 198 195" stroke="#F8FAFC" stroke-width="15" stroke-linecap="round"/>
    <path d="M198 195L223 220" stroke="#F8FAFC" stroke-width="15" stroke-linecap="round"/>
    <circle cx="284" cy="92" r="13" fill="#F97316" stroke="#FFFFFF" stroke-width="6"/>
    <circle cx="55" cy="214" r="13" fill="#2DD4BF" stroke="#FFFFFF" stroke-width="6"/>
  </g>
  <g transform="translate(520 238)">
    <text x="0" y="72" fill="#071426" font-family="Arial, Helvetica, sans-serif" font-size="82" font-weight="800" letter-spacing="-1.5">Nexa Quant</text>
    <text x="5" y="128" fill="#5A708A" font-family="Arial, Helvetica, sans-serif" font-size="23" font-weight="700" letter-spacing="4.2">MARKET STRUCTURE LAB</text>
    <g transform="translate(5 174)">
      <rect x="0" y="0" width="520" height="62" rx="18" fill="#FFFFFF" stroke="#D8E2EE"/>
      <circle cx="35" cy="31" r="8" fill="#2DD4BF"/>
      <path d="M68 31H180" stroke="#CBD5E1" stroke-width="5" stroke-linecap="round"/>
      <circle cx="216" cy="31" r="8" fill="#F97316"/>
      <path d="M249 31H361" stroke="#CBD5E1" stroke-width="5" stroke-linecap="round"/>
      <circle cx="397" cy="31" r="8" fill="#2DD4BF"/>
      <path d="M430 31H492" stroke="#CBD5E1" stroke-width="5" stroke-linecap="round"/>
    </g>
  </g>
</svg>
